<svg width="551" height="551" viewBox="0 0 551 551" fill="none" xmlns="http://www.w3.org/2000/svg">
<path d="M0 479.262V165.664C0 142.948 0 131.59 3.9685 122.727C8.53166 112.536 16.6867 104.381 26.878 99.8176C35.7412 95.8491 47.0992 95.8491 69.8151 95.8491H91.7058C94.0012 95.8491 95.149 95.8491 96.1191 95.8076C119.697 94.7998 138.581 75.9155 139.589 52.3379C139.63 51.3678 139.63 50.22 139.63 47.9245C139.63 45.6291 139.63 44.4813 139.672 43.5112C140.68 19.9336 159.564 1.0493 183.142 0.0414676C184.112 0 185.259 0 187.555 0H479.262C503.432 0 515.518 0 524.845 4.47909C534.159 8.95147 541.671 16.4635 546.143 25.7773C550.622 35.1049 550.622 47.19 550.622 71.3601V479.262C550.622 503.432 550.622 515.518 546.143 524.845C541.671 534.159 534.159 541.671 524.845 546.143C515.518 550.622 503.432 550.622 479.262 550.622H71.3601C47.19 550.622 35.1049 550.622 25.7773 546.143C16.4635 541.671 8.95147 534.159 4.47909 524.845C0 515.518 0 503.432 0 479.262Z" fill="#0A0A0A"/>
<rect width="111.683" height="71.4251" rx="29.2194" fill="#0A0A0A"/>
<path d="M31.8203 35.4495L79.8676 35.4495L78.569 35.4495" stroke="#E7F77D" stroke-width="2.59728" stroke-miterlimit="10" stroke-linecap="square"/>
<path d="M67.293 48.0206L79.8643 35.4492L67.293 22.8779" stroke="#E7F77D" stroke-width="2.59728" stroke-miterlimit="10" stroke-linecap="square"/>
</svg>
