<svg width="536" height="652" viewBox="0 0 536 652" fill="none" xmlns="http://www.w3.org/2000/svg">
<path d="M534.996 450.321V606.888C534.996 631.175 515.305 650.859 491.026 650.859H44.873C20.586 650.859 0.902344 631.167 0.902344 606.888V538.262H286.496C316.594 538.262 345.735 527.659 368.791 508.313L416.094 468.624C430.187 456.798 447.996 450.321 466.386 450.321H534.996Z" fill="#E7F77D"/>
<path d="M534.996 44.9706V387.584H466.386C433.3 387.584 401.116 399.292 375.77 420.56L328.467 460.249C316.727 470.099 301.819 475.525 286.504 475.525H0.902344V44.9706C0.902344 20.6837 20.586 1 44.873 1H491.026C515.313 1 534.996 20.6837 534.996 44.9706Z" fill="#F6F4F0"/>
<path d="M534.996 418.952V450.321H466.386C447.996 450.321 430.187 456.798 416.094 468.624L368.791 508.313C345.735 527.66 316.594 538.262 286.496 538.262H0.902344V506.894H286.504C309.183 506.894 331.251 498.863 348.629 484.285L395.932 444.596C415.64 428.057 440.664 418.952 466.386 418.952H534.996Z" fill="#8594E8"/>
<path d="M534.996 387.584V418.952H466.386C440.664 418.952 415.64 428.057 395.932 444.596L348.629 484.285C331.251 498.863 309.183 506.894 286.504 506.894H0.902344V475.525H286.504C301.819 475.525 316.727 470.099 328.467 460.249L375.77 420.56C401.116 399.292 433.3 387.584 466.386 387.584H534.996Z" fill="#0A0A0A"/>
<path d="M534.996 44.9706V606.888C534.996 631.175 515.305 650.859 491.026 650.859H44.873C20.586 650.859 0.902344 631.167 0.902344 606.888V44.9706C0.902344 20.6837 20.586 1 44.873 1H491.026C515.313 1 534.996 20.6837 534.996 44.9706Z" stroke="#0A0A0A" stroke-width="1.25078" stroke-miterlimit="10"/>
</svg>
