<svg width="536" height="652" viewBox="0 0 536 652" fill="none" xmlns="http://www.w3.org/2000/svg">
<path d="M535.094 450.321V606.888C535.094 631.175 515.402 650.859 491.123 650.859H44.9706C20.6837 650.859 1 631.167 1 606.888V538.262H286.593C316.691 538.262 345.833 527.659 368.888 508.313L416.192 468.624C430.284 456.798 448.094 450.321 466.483 450.321H535.094Z" fill="#8594E8"/>
<path d="M535.094 44.9706V387.584H466.483C433.398 387.584 401.214 399.292 375.868 420.56L328.564 460.249C316.825 470.099 301.917 475.525 286.601 475.525H1V44.9706C1 20.6837 20.6837 1 44.9706 1H491.123C515.41 1 535.094 20.6837 535.094 44.9706Z" fill="#E7F77D"/>
<path d="M535.094 418.952V450.321H466.483C448.094 450.321 430.284 456.798 416.192 468.624L368.888 508.313C345.833 527.66 316.691 538.262 286.593 538.262H1V506.894H286.601C309.281 506.894 331.348 498.863 348.726 484.285L396.03 444.596C415.737 428.057 440.761 418.952 466.483 418.952H535.094Z" fill="#0A0A0A"/>
<path d="M535.094 387.584V418.952H466.483C440.761 418.952 415.737 428.057 396.03 444.596L348.726 484.285C331.348 498.863 309.281 506.894 286.601 506.894H1V475.525H286.601C301.917 475.525 316.825 470.099 328.564 460.249L375.868 420.56C401.214 399.292 433.398 387.584 466.483 387.584H535.094Z" fill="#F6F4F0"/>
<path d="M535.094 44.9706V606.888C535.094 631.175 515.402 650.859 491.123 650.859H44.9706C20.6837 650.859 1 631.167 1 606.888V44.9706C1 20.6837 20.6837 1 44.9706 1H491.123C515.41 1 535.094 20.6837 535.094 44.9706Z" stroke="#0A0A0A" stroke-width="1.25078" stroke-miterlimit="10"/>
</svg>
