<svg width="553" height="553" viewBox="0 0 553 553" fill="none" xmlns="http://www.w3.org/2000/svg">
<path d="M1 480.262V166.664C1 143.948 1 132.59 4.9685 123.727C9.53166 113.536 17.6867 105.381 27.878 100.818C36.7412 96.8491 48.0992 96.8491 70.8151 96.8491H92.7058C95.0012 96.8491 96.149 96.8491 97.1191 96.8076C120.697 95.7998 139.581 76.9155 140.589 53.3379C140.63 52.3678 140.63 51.22 140.63 48.9245C140.63 46.6291 140.63 45.4813 140.672 44.5112C141.68 20.9336 160.564 2.0493 184.142 1.04147C185.112 1 186.259 1 188.555 1H480.262C504.432 1 516.518 1 525.845 5.47909C535.159 9.95147 542.671 17.4635 547.143 26.7773C551.622 36.1049 551.622 48.19 551.622 72.3601V480.262C551.622 504.432 551.622 516.518 547.143 525.845C542.671 535.159 535.159 542.671 525.845 547.143C516.518 551.622 504.432 551.622 480.262 551.622H72.3601C48.19 551.622 36.1049 551.622 26.7773 547.143C17.4635 542.671 9.95147 535.159 5.47909 525.845C1 516.518 1 504.432 1 480.262Z" fill="#8594E8" stroke="#0A0A0A" stroke-width="1.5"/>
<rect x="1.75" y="1.75" width="110.183" height="69.9251" rx="28.4694" fill="#8594E8" stroke="#0A0A0A" stroke-width="1.5"/>
<path d="M32.8203 36.4495L80.8676 36.4495L79.569 36.4495" stroke="#F6F4F0" stroke-width="2.59728" stroke-miterlimit="10" stroke-linecap="square"/>
<path d="M68.293 49.0206L80.8643 36.4492L68.293 23.8779" stroke="#F6F4F0" stroke-width="2.59728" stroke-miterlimit="10" stroke-linecap="square"/>
</svg>
