<svg width="535" height="151" viewBox="0 0 535 151" fill="none" xmlns="http://www.w3.org/2000/svg">
<path d="M534.094 31.3682V62.7366H465.483C447.094 62.7366 429.284 69.2141 415.192 81.04L367.888 120.729C344.833 140.075 315.691 150.678 285.593 150.678H0V119.309H285.601C308.281 119.309 330.348 111.279 347.726 96.7007L395.03 57.0118C414.737 40.4728 439.761 31.3682 465.483 31.3682H534.094Z" fill="#E7F77D"/>
<path d="M534.094 0V31.3684H465.483C439.761 31.3684 414.737 40.4731 395.03 57.012L347.726 96.7009C330.348 111.279 308.281 119.31 285.601 119.31H0V87.9413H285.601C300.917 87.9413 315.825 82.5146 327.564 72.6649L374.868 32.976C400.214 11.7083 432.398 0 465.483 0H534.094Z" fill="#8594E8"/>
</svg>
