<svg width="535" height="151" viewBox="0 0 535 151" fill="none" xmlns="http://www.w3.org/2000/svg">
<path d="M534.996 31.3682V62.7366H466.386C447.996 62.7366 430.187 69.2141 416.094 81.04L368.791 120.729C345.735 140.075 316.594 150.678 286.496 150.678H0.902344V119.309H286.504C309.183 119.309 331.251 111.279 348.629 96.7007L395.932 57.0118C415.64 40.4728 440.664 31.3682 466.386 31.3682H534.996Z" fill="#8594E8"/>
<path d="M534.996 0V31.3684H466.386C440.664 31.3684 415.64 40.4731 395.932 57.012L348.629 96.7009C331.251 111.279 309.183 119.31 286.504 119.31H0.902344V87.9413H286.504C301.819 87.9413 316.727 82.5146 328.467 72.6649L375.77 32.976C401.116 11.7083 433.3 0 466.386 0H534.996Z" fill="#0A0A0A"/>
</svg>
