<svg width="1122" height="735" viewBox="0 0 1122 735" fill="none" xmlns="http://www.w3.org/2000/svg">
<path d="M1074.46 1C1100.16 1 1121 23.6561 1121 51.6038V508.724C1121 536.672 1100.16 559.328 1074.46 559.328H976.024C975.744 559.334 975.464 559.337 975.183 559.337H922.512C896.811 559.337 875.975 581.994 875.975 609.941V617.523C875.975 618.469 875.95 619.409 875.903 620.342V683.307C875.903 711.255 855.068 733.911 829.366 733.911H47.5374C21.8355 733.911 1 711.255 1 683.307V51.6038C1 23.6561 21.8355 1 47.5374 1H1074.46Z" fill="#0A0A0A" stroke="#0A0A0A" stroke-width="1.24453"/>
<rect x="1120.38" y="733.289" width="211.276" height="141.289" rx="34.2247" transform="rotate(180 1120.38 733.289)" fill="#0A0A0A" stroke="#0A0A0A" stroke-width="1.24453"/>
</svg>
